#Mesh

g mesh

v -3.000 0.000 0.000
v 3.000 0.000 0.000
v -3.000 0.500 0.000
v 3.000 0.500 0.000
v 3.000 0.000 0.000
v 3.000 0.500 0.000
v 3.000 0.000 3.000
v 3.000 0.500 3.000
v -3.000 0.000 0.000
v -3.000 0.500 0.000
v -3.000 0.000 3.000
v -3.000 0.500 3.000
v -3.000 0.000 3.000
v 3.000 0.000 3.000
v -3.000 0.500 3.000
v 3.000 0.500 3.000
v -3.000 0.500 0.000
v 3.000 0.500 0.000
v -3.000 0.500 3.000
v 3.000 0.500 3.000
v -3.000 0.000 0.000
v 3.000 0.000 0.000
v -3.000 0.000 3.000
v 3.000 0.000 3.000

vt 0.000 0.000
vt 0.250 0.000
vt 0.000 0.250
vt 0.250 0.250
vt 0.000 0.000
vt 0.000 0.250
vt 0.250 0.000
vt 0.250 0.250
vt 0.000 0.000
vt 0.000 0.250
vt 0.250 0.000
vt 0.250 0.250
vt 0.000 0.000
vt 0.250 0.000
vt 0.000 0.250
vt 0.250 0.250
vt 0.000 0.000
vt 1.000 0.000
vt 0.000 1.000
vt 1.000 1.000
vt 0.000 0.000
vt 1.000 0.000
vt 0.000 1.000
vt 1.000 1.000

vn 0.000 0.000 -1.000
vn 0.000 0.000 -1.000
vn 0.000 0.000 -1.000
vn 0.000 0.000 -1.000
vn 1.000 0.000 0.000
vn 1.000 0.000 0.000
vn 1.000 0.000 0.000
vn 1.000 0.000 0.000
vn -1.000 0.000 0.000
vn -1.000 0.000 0.000
vn -1.000 0.000 0.000
vn -1.000 0.000 0.000
vn 0.000 0.000 1.000
vn 0.000 0.000 1.000
vn 0.000 0.000 1.000
vn 0.000 0.000 1.000
vn 0.000 1.000 0.000
vn 0.000 1.000 0.000
vn 0.000 1.000 0.000
vn 0.000 1.000 0.000
vn 0.000 -1.000 0.000
vn 0.000 -1.000 0.000
vn 0.000 -1.000 0.000
vn 0.000 -1.000 0.000

f 3/3/3 2/2/2 1/1/1
f 2/2/2 3/3/3 4/4/4
f 5/5/5 6/6/6 7/7/7
f 8/8/8 7/7/7 6/6/6
f 11/11/11 10/10/10 9/9/9
f 10/10/10 11/11/11 12/12/12
f 13/13/13 14/14/14 15/15/15
f 16/16/16 15/15/15 14/14/14
f 19/19/19 18/18/18 17/17/17
f 18/18/18 19/19/19 20/20/20
f 21/21/21 22/22/22 23/23/23
f 24/24/24 23/23/23 22/22/22
